<svg width="13" height="11" viewBox="0 0 13 11" fill="none" xmlns="http://www.w3.org/2000/svg">
<path d="M0 3.90002V9.10002C0 9.44481 0.136964 9.77547 0.380761 10.0193C0.624558 10.2631 0.955218 10.4 1.3 10.4H11.7C12.0448 10.4 12.3754 10.2631 12.6192 10.0193C12.863 9.77547 13 9.44481 13 9.10002V3.90002L6.5 6.50002L0 3.90002Z" fill="white"/>
<path d="M1.3 0C0.955218 0 0.624558 0.136964 0.380761 0.380761C0.136964 0.624558 0 0.955218 0 1.3L0 2.6L6.5 5.2L13 2.6V1.3C13 0.955218 12.863 0.624558 12.6192 0.380761C12.3754 0.136964 12.0448 0 11.7 0H1.3Z" fill="white"/>
</svg>
