<svg width="20" height="20" viewBox="0 0 20 20" fill="none" xmlns="http://www.w3.org/2000/svg">
<path d="M17.125 3.0625C17.125 2.875 17.0625 2.75 16.9375 2.625C16.8125 2.5 16.6875 2.4375 16.5 2.4375C16.3125 2.4375 16.1875 2.5 16.0625 2.625L14.375 4.3125C13.125 3.6875 11.6875 3.3125 10 3.125C6.875 3.4375 4.375 4.5625 2.625 6.5625C0.875 8.5625 0 9.6875 0 10C0 10.3125 0.9375 11.4375 2.625 13.4375C3.0625 13.9375 3.5 14.375 4.0625 14.75L2.375 16.5C2.25 16.625 2.1875 16.75 2.1875 16.9375C2.1875 17.125 2.25 17.25 2.375 17.375C2.5 17.5 2.625 17.5625 2.8125 17.5625C3 17.5625 3.125 17.5 3.25 17.375L17 3.5C17.0625 3.375 17.125 3.25 17.125 3.0625ZM4.5 13.375C3 12 2 10.875 1.5 10C2.0625 9.0625 3.0625 7.9375 4.5 6.625C5.9375 5.3125 7.8125 4.5 10 4.375C11.25 4.4375 12.4375 4.75 13.4375 5.25L12.375 6.3125C11.6875 5.875 10.9375 5.625 10 5.625C8.75 5.625 7.75 6.0625 6.875 6.875C6 7.6875 5.625 8.75 5.625 10C5.625 10.9375 5.875 11.75 6.3125 12.4375L5 13.8125C4.8125 13.6875 4.625 13.5 4.5 13.375ZM7.25 11.5C7 11.0625 6.875 10.5625 6.875 10C6.875 9.125 7.1875 8.375 7.8125 7.8125C8.4375 7.25 9.125 6.875 10 6.875C10.5625 6.875 11.0625 7 11.4375 7.25L7.25 11.5ZM17.375 6.5625C17.125 6.25 16.8125 6 16.5625 5.75L15.625 6.6875C17.0625 8 18.0625 9.125 18.5625 10C18 10.9375 17 12.0625 15.5625 13.375C14.125 14.6875 12.1875 15.5 9.99998 15.625C8.99998 15.5625 8.06248 15.375 7.24998 15.0625L6.31248 16C7.43748 16.4375 8.62498 16.75 9.99998 16.875C13.125 16.5625 15.625 15.4375 17.375 13.4375C19.125 11.4375 20 10.3125 20 10C20 9.6875 19.0625 8.5625 17.375 6.5625Z" fill="#A9A9A9"/>
<path d="M9.99995 13.125C9.74995 13.125 9.49995 13.0625 9.24995 13L8.24995 14C8.81245 14.25 9.37495 14.375 9.99995 14.375C11.25 14.375 12.25 13.9375 13.125 13.125C13.9375 12.3125 14.375 11.25 14.375 10C14.375 9.375 14.25 8.75 14 8.25L13 9.25C13.0625 9.5 13.125 9.75 13.125 10C13.125 10.875 12.8125 11.625 12.1875 12.1875C11.5625 12.75 10.875 13.125 9.99995 13.125Z" fill="#A9A9A9"/>
</svg>
