<svg width="136" height="144" viewBox="0 0 136 144" fill="none" xmlns="http://www.w3.org/2000/svg">
<g filter="url(#filter0_d_837_324)">
<circle cx="72" cy="72" r="32" fill="white"/>
<path d="M53.6229 89H50.9643V82.6587H53.5966C54.7479 82.6587 55.4906 83.2783 55.4906 84.2407C55.4906 84.9219 54.9853 85.5151 54.3349 85.6206V85.6558C55.1962 85.7393 55.7982 86.3589 55.7982 87.1982C55.7982 88.3145 54.9765 89 53.6229 89ZM52.098 83.542V85.3306H53.1352C53.9262 85.3306 54.37 84.9966 54.37 84.4077C54.37 83.854 53.9877 83.542 53.3109 83.542H52.098ZM52.098 88.1167H53.3637C54.1986 88.1167 54.6425 87.7695 54.6425 87.1191C54.6425 86.4731 54.1854 86.1348 53.3153 86.1348H52.098V88.1167ZM57.9277 88.2485C58.5473 88.2485 59.0439 87.8354 59.0439 87.2729V86.917L57.9672 86.9829C57.4399 87.0181 57.1366 87.2554 57.1366 87.6245C57.1366 88.0068 57.453 88.2485 57.9277 88.2485ZM57.5981 89.0747C56.6972 89.0747 56.0424 88.5078 56.0424 87.6685C56.0424 86.8423 56.6796 86.3457 57.8134 86.2754L59.0439 86.2051V85.8711C59.0439 85.3833 58.7143 85.1021 58.1738 85.1021C57.6552 85.1021 57.3256 85.3525 57.2553 85.7393H56.2402C56.2885 84.8691 57.0312 84.2451 58.2177 84.2451C59.3735 84.2451 60.1249 84.856 60.1249 85.792V89H59.0702V88.2573H59.0483C58.7802 88.7627 58.1957 89.0747 57.5981 89.0747ZM64.8427 86.0029H63.81C63.7221 85.5063 63.3749 85.1328 62.7905 85.1328C62.1005 85.1328 61.6567 85.7129 61.6567 86.6709C61.6567 87.6465 62.1049 88.209 62.7993 88.209C63.353 88.209 63.7133 87.8926 63.8144 87.3652H64.8471C64.7592 88.4067 63.955 89.0923 62.7861 89.0923C61.4238 89.0923 60.5449 88.1826 60.5449 86.6709C60.5449 85.1812 61.4238 84.2451 62.7773 84.2451C64.0078 84.2451 64.768 85.0229 64.8427 86.0029ZM66.3701 86.2842L68.1235 84.3418H69.3847L67.5214 86.3457L69.4638 89H68.1982L66.726 87.0093L66.3569 87.3828V89H65.2627V82.6587H66.3569V86.2842H66.3701ZM71.4639 83.252H72.5581V84.3418H73.437V85.1855H72.5581V87.6069C72.5581 87.9893 72.7339 88.165 73.1206 88.165C73.2217 88.165 73.3623 88.1562 73.4326 88.1431V88.978C73.314 89.0044 73.0986 89.022 72.8657 89.022C71.8594 89.022 71.4639 88.666 71.4639 87.7607V85.1855H70.7959V84.3418H71.4639V83.252ZM75.8872 89.0923C74.5205 89.0923 73.6328 88.1826 73.6328 86.6709C73.6328 85.168 74.5293 84.2451 75.8872 84.2451C77.2451 84.2451 78.1416 85.1636 78.1416 86.6709C78.1416 88.1826 77.2539 89.0923 75.8872 89.0923ZM75.8872 88.2266C76.5816 88.2266 77.0298 87.6641 77.0298 86.6709C77.0298 85.6821 76.5816 85.1152 75.8872 85.1152C75.1973 85.1152 74.7446 85.6821 74.7446 86.6709C74.7446 87.6641 75.1929 88.2266 75.8872 88.2266ZM82.897 89H81.7676V83.6167H79.8692V82.6587H84.7911V83.6167H82.897V89ZM86.1602 89.0923C84.7935 89.0923 83.9058 88.1826 83.9058 86.6709C83.9058 85.168 84.8023 84.2451 86.1602 84.2451C87.5181 84.2451 88.4146 85.1636 88.4146 86.6709C88.4146 88.1826 87.5269 89.0923 86.1602 89.0923ZM86.1602 88.2266C86.8546 88.2266 87.3028 87.6641 87.3028 86.6709C87.3028 85.6821 86.8546 85.1152 86.1602 85.1152C85.4703 85.1152 85.0177 85.6821 85.0177 86.6709C85.0177 87.6641 85.4659 88.2266 86.1602 88.2266ZM91.4054 84.2627C92.5875 84.2627 93.339 85.1812 93.339 86.6709C93.339 88.1562 92.5919 89.0747 91.423 89.0747C90.7462 89.0747 90.2188 88.7495 89.964 88.2266H89.942V90.5337H88.8478V84.3418H89.9156V85.146H89.9376C90.2013 84.6055 90.7286 84.2627 91.4054 84.2627ZM91.0714 88.1782C91.7789 88.1782 92.2184 87.5938 92.2184 86.6709C92.2184 85.7524 91.7789 85.1636 91.0714 85.1636C90.3902 85.1636 89.9376 85.7656 89.9332 86.6709C89.9376 87.585 90.3902 88.1782 91.0714 88.1782Z" fill="#0458B2"/>
<mask id="mask0_837_324" style="mask-type:alpha" maskUnits="userSpaceOnUse" x="61" y="53" width="23" height="25">
<path d="M71.1469 54.9873C71.6907 53.8503 73.3093 53.8503 73.8531 54.9873L83.2367 74.6027C83.713 75.5983 82.9872 76.75 81.8836 76.75H63.1164C62.0128 76.75 61.287 75.5983 61.7633 74.6027L71.1469 54.9873Z" fill="#F5F8FD" stroke="#0357B1"/>
</mask>
<g mask="url(#mask0_837_324)">
<path d="M58 72.1695C58 61.5825 64.0441 53 71.5 53C78.9559 53 85 61.5825 85 72.1695V72.8305C85 83.4175 78.9559 92 71.5 92C64.0441 92 58 83.4175 58 72.8305V72.1695Z" fill="url(#paint0_linear_837_324)"/>
</g>
</g>
<defs>
<filter id="filter0_d_837_324" x="0" y="0" width="144" height="144" filterUnits="userSpaceOnUse" color-interpolation-filters="sRGB">
<feFlood flood-opacity="0" result="BackgroundImageFix"/>
<feColorMatrix in="SourceAlpha" type="matrix" values="0 0 0 0 0 0 0 0 0 0 0 0 0 0 0 0 0 0 127 0" result="hardAlpha"/>
<feOffset/>
<feGaussianBlur stdDeviation="20"/>
<feComposite in2="hardAlpha" operator="out"/>
<feColorMatrix type="matrix" values="0 0 0 0 0 0 0 0 0 0 0 0 0 0 0 0 0 0 0.1 0"/>
<feBlend mode="normal" in2="BackgroundImageFix" result="effect1_dropShadow_837_324"/>
<feBlend mode="normal" in="SourceGraphic" in2="effect1_dropShadow_837_324" result="shape"/>
</filter>
<linearGradient id="paint0_linear_837_324" x1="65.2488" y1="90.0642" x2="89.7349" y2="79.1804" gradientUnits="userSpaceOnUse">
<stop stop-color="#9BE8F0"/>
<stop offset="0.185301" stop-color="#9BE8F0"/>
<stop offset="0.186879" stop-color="#75CEF8"/>
<stop offset="0.442597" stop-color="#75CEF8"/>
<stop offset="0.446755" stop-color="#0181CC"/>
<stop offset="0.736303" stop-color="#0181CC"/>
<stop offset="0.738702" stop-color="#0357B1"/>
<stop offset="1" stop-color="#0357B1"/>
</linearGradient>
</defs>
</svg>
