<svg width="107" height="108" viewBox="0 0 107 108" fill="none" xmlns="http://www.w3.org/2000/svg">
<path d="M0 53.0847C0 23.7668 23.9418 0 53.4757 0C83.0096 0 106.951 23.7668 106.951 53.0847V54.9153C106.951 84.2332 83.0096 108 53.4757 108C23.9418 108 0 84.2332 0 54.9153V53.0847Z" fill="url(#paint0_linear_39_25)"/>
<path d="M38.4022 80.5424C39.2804 81.8499 41.1244 83.0266 43.9341 84.0726C46.8318 85.1186 49.8612 85.6416 53.0224 85.6416C58.0275 85.6416 61.7155 84.6827 64.0863 82.7651C66.4572 80.8475 67.6426 78.1889 67.6426 74.7893C67.6426 72.4358 66.8963 70.3875 65.4035 68.6441C63.9109 66.9006 61.8035 65.3753 59.0812 64.0678C56.4469 62.6732 52.6272 61.0169 47.6221 59.0993C40.861 56.5713 35.8996 53.5641 32.7385 50.0775C29.6653 46.5035 28.1285 41.8402 28.1285 36.0872C28.1285 32.2517 29.2702 28.8959 31.553 26.0194C33.9239 23.1428 37.129 20.9201 41.1681 19.3511C45.2953 17.695 49.8612 16.8668 54.8664 16.8668C58.9058 16.8668 62.418 17.172 65.4035 17.7821C68.4769 18.3922 70.9354 19.0025 72.7794 19.6126C74.6234 20.2227 75.8528 20.6149 76.4674 20.7893V37.0024H68.4329L65.7986 27.3269C65.2717 26.2809 63.8669 25.4093 61.5838 24.7119C59.3009 23.9274 56.7543 23.5351 53.9444 23.5351C49.993 23.5351 46.7881 24.4067 44.3293 26.1501C41.9584 27.8935 40.773 30.2471 40.773 33.2106C40.773 35.8257 41.3878 38.0047 42.617 39.7482C43.9341 41.4043 45.5587 42.7554 47.4904 43.8014C49.4224 44.8474 52.0566 46.0679 55.3932 47.4625L58.0275 48.5085C62.9449 50.4261 66.9403 52.2566 70.0134 54C73.0868 55.7434 75.6334 58.0533 77.6528 60.9298C79.7602 63.7192 80.8139 67.1621 80.8139 71.2591C80.8139 77.7095 78.2677 82.8522 73.1746 86.6876C68.1694 90.5231 61.2766 92.4407 52.4955 92.4407C48.193 92.4407 43.6707 91.874 38.929 90.7409C34.2753 89.5205 30.4556 88.3003 27.4699 87.0799V70.3438H36.0313L38.4022 80.5424Z" fill="white"/>
<defs>
<linearGradient id="paint0_linear_39_25" x1="28.7136" y1="102.639" x2="111.432" y2="50.0468" gradientUnits="userSpaceOnUse">
<stop stop-color="#9BE8F0"/>
<stop offset="0.185301" stop-color="#9BE8F0"/>
<stop offset="0.186879" stop-color="#75CEF8"/>
<stop offset="0.442597" stop-color="#75CEF8"/>
<stop offset="0.446755" stop-color="#0181CC"/>
<stop offset="0.736303" stop-color="#0181CC"/>
<stop offset="0.738702" stop-color="#0357B1"/>
<stop offset="1" stop-color="#0357B1"/>
</linearGradient>
</defs>
</svg>
