<svg width="262" height="179" viewBox="0 0 262 179" fill="none" xmlns="http://www.w3.org/2000/svg">
<path d="M36.0078 155.19H37.9971C38.0928 156.004 38.9404 156.537 40.0342 156.537C41.1348 156.537 41.8867 156.011 41.8867 155.286C41.8867 154.644 41.415 154.288 40.2256 154.021L38.9404 153.741C37.1221 153.352 36.2266 152.429 36.2266 150.986C36.2266 149.168 37.7988 147.965 40 147.965C42.2969 147.965 43.7393 149.147 43.7734 150.932H41.8389C41.7705 150.098 41.0391 149.592 40.0068 149.592C38.9883 149.592 38.3047 150.077 38.3047 150.809C38.3047 151.417 38.7832 151.759 39.918 152.019L41.1143 152.271C43.0898 152.695 43.9512 153.543 43.9512 155.047C43.9512 156.961 42.3994 158.171 39.9521 158.171C37.5801 158.171 36.0693 157.043 36.0078 155.19ZM49.6455 158H47.5811V149.838H44.7305V148.136H52.5029V149.838H49.6455V158ZM64.0898 158H62.251V151.342H62.1963L59.5166 157.904H58.2178L55.5381 151.342H55.4834V158H53.6445V148.136H56.0371L58.8398 155.129H58.8945L61.6973 148.136H64.0898V158ZM67.7949 158H65.7305V148.136H67.7949V158ZM74.2754 158H72.2109V148.136H74.2754V158ZM75.7451 158V150.672H77.6729V151.978H77.7139C78.1035 151.068 78.876 150.535 80.0039 150.535C81.6309 150.535 82.5469 151.561 82.5469 153.276V158H80.5508V153.693C80.5508 152.736 80.0996 152.189 79.2041 152.189C78.3086 152.189 77.7412 152.846 77.7412 153.796V158H75.7451ZM84.3447 148.983H86.3408V150.672H87.6943V152.176H86.3408V155.683C86.3408 156.243 86.6143 156.51 87.2021 156.51C87.3799 156.51 87.5645 156.496 87.6875 156.476V157.945C87.4824 157.993 87.1406 158.027 86.7373 158.027C85.0146 158.027 84.3447 157.453 84.3447 156.024V152.176H83.3125V150.672H84.3447V148.983ZM91.9668 151.991C91.0918 151.991 90.4629 152.654 90.3945 153.57H93.5049C93.4639 152.634 92.8555 151.991 91.9668 151.991ZM93.5322 155.758H95.3643C95.1455 157.193 93.833 158.157 92.0215 158.157C89.7656 158.157 88.4121 156.715 88.4121 154.37C88.4121 152.032 89.7793 150.515 91.9463 150.515C94.0791 150.515 95.4258 151.957 95.4258 154.186V154.794H90.374V154.917C90.374 155.963 91.0371 156.681 92.0557 156.681C92.7871 156.681 93.3477 156.318 93.5322 155.758ZM96.458 158V150.672H98.3857V151.991H98.4268C98.6865 151.062 99.3086 150.556 100.17 150.556C100.402 150.556 100.601 150.59 100.737 150.631V152.388C100.573 152.319 100.3 152.271 100.013 152.271C99.0283 152.271 98.4541 152.873 98.4541 153.905V158H96.458ZM104.21 156.674C105.078 156.674 105.796 156.106 105.796 155.313V154.78L104.251 154.876C103.506 154.931 103.082 155.266 103.082 155.785C103.082 156.332 103.533 156.674 104.21 156.674ZM103.554 158.116C102.159 158.116 101.1 157.214 101.1 155.895C101.1 154.562 102.125 153.789 103.95 153.68L105.796 153.57V153.085C105.796 152.401 105.317 152.005 104.565 152.005C103.82 152.005 103.349 152.374 103.253 152.914H101.428C101.503 151.492 102.713 150.515 104.654 150.515C106.534 150.515 107.758 151.485 107.758 152.962V158H105.83V156.879H105.789C105.379 157.658 104.47 158.116 103.554 158.116ZM115.708 153.399H113.855C113.739 152.627 113.227 152.08 112.406 152.08C111.422 152.08 110.807 152.914 110.807 154.329C110.807 155.771 111.422 156.592 112.413 156.592C113.213 156.592 113.732 156.113 113.855 155.313H115.715C115.612 157.043 114.32 158.157 112.393 158.157C110.185 158.157 108.783 156.722 108.783 154.329C108.783 151.978 110.185 150.515 112.379 150.515C114.361 150.515 115.619 151.738 115.708 153.399ZM117.212 148.983H119.208V150.672H120.562V152.176H119.208V155.683C119.208 156.243 119.481 156.51 120.069 156.51C120.247 156.51 120.432 156.496 120.555 156.476V157.945C120.35 157.993 120.008 158.027 119.604 158.027C117.882 158.027 117.212 157.453 117.212 156.024V152.176H116.18V150.672H117.212V148.983ZM121.689 158V150.672H123.686V158H121.689ZM122.688 149.865C122.086 149.865 121.621 149.407 121.621 148.833C121.621 148.252 122.086 147.801 122.688 147.801C123.289 147.801 123.754 148.252 123.754 148.833C123.754 149.407 123.289 149.865 122.688 149.865ZM131.718 150.672L129.202 158H126.946L124.41 150.672H126.55L128.074 156.236H128.115L129.633 150.672H131.718ZM135.498 151.991C134.623 151.991 133.994 152.654 133.926 153.57H137.036C136.995 152.634 136.387 151.991 135.498 151.991ZM137.063 155.758H138.896C138.677 157.193 137.364 158.157 135.553 158.157C133.297 158.157 131.943 156.715 131.943 154.37C131.943 152.032 133.311 150.515 135.478 150.515C137.61 150.515 138.957 151.957 138.957 154.186V154.794H133.905V154.917C133.905 155.963 134.568 156.681 135.587 156.681C136.318 156.681 136.879 156.318 137.063 155.758ZM153.381 158H151.542V151.342H151.487L148.808 157.904H147.509L144.829 151.342H144.774V158H142.936V148.136H145.328L148.131 155.129H148.186L150.988 148.136H153.381V158ZM157.517 156.674C158.385 156.674 159.103 156.106 159.103 155.313V154.78L157.558 154.876C156.812 154.931 156.389 155.266 156.389 155.785C156.389 156.332 156.84 156.674 157.517 156.674ZM156.86 158.116C155.466 158.116 154.406 157.214 154.406 155.895C154.406 154.562 155.432 153.789 157.257 153.68L159.103 153.57V153.085C159.103 152.401 158.624 152.005 157.872 152.005C157.127 152.005 156.655 152.374 156.56 152.914H154.734C154.81 151.492 156.02 150.515 157.961 150.515C159.841 150.515 161.064 151.485 161.064 152.962V158H159.137V156.879H159.096C158.686 157.658 157.776 158.116 156.86 158.116ZM162.356 158V150.672H164.284V151.978H164.325C164.715 151.068 165.487 150.535 166.615 150.535C168.242 150.535 169.158 151.561 169.158 153.276V158H167.162V153.693C167.162 152.736 166.711 152.189 165.815 152.189C164.92 152.189 164.353 152.846 164.353 153.796V158H162.356ZM173.253 156.674C174.121 156.674 174.839 156.106 174.839 155.313V154.78L173.294 154.876C172.549 154.931 172.125 155.266 172.125 155.785C172.125 156.332 172.576 156.674 173.253 156.674ZM172.597 158.116C171.202 158.116 170.143 157.214 170.143 155.895C170.143 154.562 171.168 153.789 172.993 153.68L174.839 153.57V153.085C174.839 152.401 174.36 152.005 173.608 152.005C172.863 152.005 172.392 152.374 172.296 152.914H170.471C170.546 151.492 171.756 150.515 173.697 150.515C175.577 150.515 176.801 151.485 176.801 152.962V158H174.873V156.879H174.832C174.422 157.658 173.513 158.116 172.597 158.116ZM181.477 156.441C182.475 156.441 183.11 155.648 183.11 154.322C183.11 153.003 182.475 152.155 181.477 152.155C180.492 152.155 179.87 152.989 179.87 154.322C179.87 155.662 180.485 156.441 181.477 156.441ZM181.442 160.762C179.515 160.762 178.209 159.825 178.052 158.52H180.007C180.164 159.025 180.738 159.374 181.497 159.374C182.529 159.374 183.104 158.8 183.104 157.952V156.667H183.062C182.721 157.446 181.859 157.979 180.8 157.979C179.009 157.979 177.826 156.599 177.826 154.309C177.826 151.984 178.975 150.556 180.834 150.556C181.887 150.556 182.714 151.109 183.097 151.95H183.131V150.672H185.1V157.897C185.1 159.647 183.637 160.762 181.442 160.762ZM189.693 151.991C188.818 151.991 188.189 152.654 188.121 153.57H191.231C191.19 152.634 190.582 151.991 189.693 151.991ZM191.259 155.758H193.091C192.872 157.193 191.56 158.157 189.748 158.157C187.492 158.157 186.139 156.715 186.139 154.37C186.139 152.032 187.506 150.515 189.673 150.515C191.806 150.515 193.152 151.957 193.152 154.186V154.794H188.101V154.917C188.101 155.963 188.764 156.681 189.782 156.681C190.514 156.681 191.074 156.318 191.259 155.758ZM194.185 158V150.672H196.112V151.998H196.153C196.461 151.116 197.247 150.535 198.245 150.535C199.305 150.535 200.043 151.082 200.289 152.039H200.33C200.658 151.116 201.533 150.535 202.606 150.535C204.042 150.535 205.006 151.52 205.006 152.996V158H203.01V153.495C203.01 152.647 202.586 152.183 201.813 152.183C201.055 152.183 200.556 152.736 200.556 153.55V158H198.635V153.434C198.635 152.647 198.19 152.183 197.452 152.183C196.693 152.183 196.181 152.757 196.181 153.577V158H194.185ZM209.559 151.991C208.684 151.991 208.055 152.654 207.986 153.57H211.097C211.056 152.634 210.447 151.991 209.559 151.991ZM211.124 155.758H212.956C212.737 157.193 211.425 158.157 209.613 158.157C207.357 158.157 206.004 156.715 206.004 154.37C206.004 152.032 207.371 150.515 209.538 150.515C211.671 150.515 213.018 151.957 213.018 154.186V154.794H207.966V154.917C207.966 155.963 208.629 156.681 209.647 156.681C210.379 156.681 210.939 156.318 211.124 155.758ZM214.05 158V150.672H215.978V151.978H216.019C216.408 151.068 217.181 150.535 218.309 150.535C219.936 150.535 220.852 151.561 220.852 153.276V158H218.855V153.693C218.855 152.736 218.404 152.189 217.509 152.189C216.613 152.189 216.046 152.846 216.046 153.796V158H214.05ZM222.649 148.983H224.646V150.672H225.999V152.176H224.646V155.683C224.646 156.243 224.919 156.51 225.507 156.51C225.685 156.51 225.869 156.496 225.992 156.476V157.945C225.787 157.993 225.445 158.027 225.042 158.027C223.319 158.027 222.649 157.453 222.649 156.024V152.176H221.617V150.672H222.649V148.983ZM57.7324 165.136H61.7451C63.7686 165.136 65.1631 166.482 65.1631 168.513C65.1631 170.536 63.7207 171.89 61.6426 171.89H59.7969V175H57.7324V165.136ZM59.7969 166.77V170.276H61.1914C62.374 170.276 63.0645 169.647 63.0645 168.52C63.0645 167.398 62.3809 166.77 61.1982 166.77H59.7969ZM66.2637 175V165.136H68.2598V175H66.2637ZM72.4365 173.674C73.3047 173.674 74.0225 173.106 74.0225 172.313V171.78L72.4775 171.876C71.7324 171.931 71.3086 172.266 71.3086 172.785C71.3086 173.332 71.7598 173.674 72.4365 173.674ZM71.7803 175.116C70.3857 175.116 69.3262 174.214 69.3262 172.895C69.3262 171.562 70.3516 170.789 72.1768 170.68L74.0225 170.57V170.085C74.0225 169.401 73.5439 169.005 72.792 169.005C72.0469 169.005 71.5752 169.374 71.4795 169.914H69.6543C69.7295 168.492 70.9395 167.515 72.8809 167.515C74.7607 167.515 75.9844 168.485 75.9844 169.962V175H74.0566V173.879H74.0156C73.6055 174.658 72.6963 175.116 71.7803 175.116ZM77.8096 165.983H79.8057V167.672H81.1592V169.176H79.8057V172.683C79.8057 173.243 80.0791 173.51 80.667 173.51C80.8447 173.51 81.0293 173.496 81.1523 173.476V174.945C80.9473 174.993 80.6055 175.027 80.2021 175.027C78.4795 175.027 77.8096 174.453 77.8096 173.024V169.176H76.7773V167.672H77.8096V165.983ZM82.7861 175V169.176H81.7881V167.706H82.7861V167.152C82.7861 165.717 83.4629 165.047 85.1992 165.047C85.5684 165.047 85.9854 165.088 86.2178 165.136V166.455C86.0742 166.428 85.876 166.414 85.6777 166.414C85.0215 166.414 84.7344 166.701 84.7344 167.221V167.706H86.1904V169.176H84.7822V175H82.7861ZM90.4014 175.157C88.1865 175.157 86.7715 173.735 86.7715 171.329C86.7715 168.957 88.207 167.515 90.4014 167.515C92.5957 167.515 94.0312 168.95 94.0312 171.329C94.0312 173.742 92.6162 175.157 90.4014 175.157ZM90.4014 173.633C91.3789 173.633 92.001 172.806 92.001 171.336C92.001 169.88 91.3721 169.039 90.4014 169.039C89.4307 169.039 88.7949 169.88 88.7949 171.336C88.7949 172.806 89.417 173.633 90.4014 173.633ZM95.0635 175V167.672H96.9912V168.991H97.0322C97.292 168.062 97.9141 167.556 98.7754 167.556C99.0078 167.556 99.2061 167.59 99.3428 167.631V169.388C99.1787 169.319 98.9053 169.271 98.6182 169.271C97.6338 169.271 97.0596 169.873 97.0596 170.905V175H95.0635ZM100.163 175V167.672H102.091V168.998H102.132C102.439 168.116 103.226 167.535 104.224 167.535C105.283 167.535 106.021 168.082 106.268 169.039H106.309C106.637 168.116 107.512 167.535 108.585 167.535C110.021 167.535 110.984 168.52 110.984 169.996V175H108.988V170.495C108.988 169.647 108.564 169.183 107.792 169.183C107.033 169.183 106.534 169.736 106.534 170.55V175H104.613V170.434C104.613 169.647 104.169 169.183 103.431 169.183C102.672 169.183 102.159 169.757 102.159 170.577V175H100.163ZM115.558 175V169.176H114.56V167.706H115.558V167.152C115.558 165.717 116.234 165.047 117.971 165.047C118.34 165.047 118.757 165.088 118.989 165.136V166.455C118.846 166.428 118.647 166.414 118.449 166.414C117.793 166.414 117.506 166.701 117.506 167.221V167.706H118.962V169.176H117.554V175H115.558ZM123.173 175.157C120.958 175.157 119.543 173.735 119.543 171.329C119.543 168.957 120.979 167.515 123.173 167.515C125.367 167.515 126.803 168.95 126.803 171.329C126.803 173.742 125.388 175.157 123.173 175.157ZM123.173 173.633C124.15 173.633 124.772 172.806 124.772 171.336C124.772 169.88 124.144 169.039 123.173 169.039C122.202 169.039 121.566 169.88 121.566 171.336C121.566 172.806 122.188 173.633 123.173 173.633ZM127.835 175V167.672H129.763V168.991H129.804C130.063 168.062 130.686 167.556 131.547 167.556C131.779 167.556 131.978 167.59 132.114 167.631V169.388C131.95 169.319 131.677 169.271 131.39 169.271C130.405 169.271 129.831 169.873 129.831 170.905V175H127.835ZM142.416 173.291V175H135.881V165.136H142.416V166.838H137.945V169.217H142.163V170.803H137.945V173.291H142.416ZM148.384 171.862H143.893V170.119H148.384V171.862ZM156.437 173.291V175H150.059V165.136H152.123V173.291H156.437ZM160.668 168.991C159.793 168.991 159.164 169.654 159.096 170.57H162.206C162.165 169.634 161.557 168.991 160.668 168.991ZM162.233 172.758H164.065C163.847 174.193 162.534 175.157 160.723 175.157C158.467 175.157 157.113 173.715 157.113 171.37C157.113 169.032 158.48 167.515 160.647 167.515C162.78 167.515 164.127 168.957 164.127 171.186V171.794H159.075V171.917C159.075 172.963 159.738 173.681 160.757 173.681C161.488 173.681 162.049 173.318 162.233 172.758ZM167.989 173.674C168.857 173.674 169.575 173.106 169.575 172.313V171.78L168.03 171.876C167.285 171.931 166.861 172.266 166.861 172.785C166.861 173.332 167.312 173.674 167.989 173.674ZM167.333 175.116C165.938 175.116 164.879 174.214 164.879 172.895C164.879 171.562 165.904 170.789 167.729 170.68L169.575 170.57V170.085C169.575 169.401 169.097 169.005 168.345 169.005C167.6 169.005 167.128 169.374 167.032 169.914H165.207C165.282 168.492 166.492 167.515 168.434 167.515C170.313 167.515 171.537 168.485 171.537 169.962V175H169.609V173.879H169.568C169.158 174.658 168.249 175.116 167.333 175.116ZM172.829 175V167.672H174.757V168.991H174.798C175.058 168.062 175.68 167.556 176.541 167.556C176.773 167.556 176.972 167.59 177.108 167.631V169.388C176.944 169.319 176.671 169.271 176.384 169.271C175.399 169.271 174.825 169.873 174.825 170.905V175H172.829ZM177.929 175V167.672H179.856V168.978H179.897C180.287 168.068 181.06 167.535 182.188 167.535C183.814 167.535 184.73 168.561 184.73 170.276V175H182.734V170.693C182.734 169.736 182.283 169.189 181.388 169.189C180.492 169.189 179.925 169.846 179.925 170.796V175H177.929ZM186.029 175V167.672H188.025V175H186.029ZM187.027 166.865C186.426 166.865 185.961 166.407 185.961 165.833C185.961 165.252 186.426 164.801 187.027 164.801C187.629 164.801 188.094 165.252 188.094 165.833C188.094 166.407 187.629 166.865 187.027 166.865ZM189.358 175V167.672H191.286V168.978H191.327C191.717 168.068 192.489 167.535 193.617 167.535C195.244 167.535 196.16 168.561 196.16 170.276V175H194.164V170.693C194.164 169.736 193.713 169.189 192.817 169.189C191.922 169.189 191.354 169.846 191.354 170.796V175H189.358ZM200.809 173.441C201.807 173.441 202.442 172.648 202.442 171.322C202.442 170.003 201.807 169.155 200.809 169.155C199.824 169.155 199.202 169.989 199.202 171.322C199.202 172.662 199.817 173.441 200.809 173.441ZM200.774 177.762C198.847 177.762 197.541 176.825 197.384 175.52H199.339C199.496 176.025 200.07 176.374 200.829 176.374C201.861 176.374 202.436 175.8 202.436 174.952V173.667H202.395C202.053 174.446 201.191 174.979 200.132 174.979C198.341 174.979 197.158 173.599 197.158 171.309C197.158 168.984 198.307 167.556 200.166 167.556C201.219 167.556 202.046 168.109 202.429 168.95H202.463V167.672H204.432V174.897C204.432 176.647 202.969 177.762 200.774 177.762Z" fill="white"/>
<path d="M193 61.4407C193 27.5079 165.018 0 130.5 0C95.9822 0 68 27.5079 68 61.4407V63.5593C68 97.4921 95.9822 125 130.5 125C165.018 125 193 97.4921 193 63.5593V61.4407Z" fill="white"/>
<path d="M112.883 93.2201C113.909 94.7335 116.064 96.0954 119.348 97.3061C122.735 98.5167 126.276 99.1221 129.97 99.1221C135.82 99.1221 140.13 98.0125 142.901 95.7928C145.672 93.5733 147.058 90.4962 147.058 86.5615C147.058 83.8376 146.185 81.4668 144.441 79.449C142.696 77.4314 140.233 75.6657 137.051 74.1523C133.973 72.5382 129.508 70.6215 123.659 68.4017C115.756 65.4762 109.958 61.9956 106.263 57.9599C102.671 53.8237 100.875 48.426 100.875 41.7674C100.875 37.3285 102.21 33.4441 104.878 30.1148C107.649 26.7855 111.395 24.2129 116.115 22.3969C120.939 20.4801 126.276 19.5216 132.125 19.5216C136.846 19.5216 140.951 19.8748 144.441 20.5809C148.033 21.2873 150.906 21.9935 153.061 22.6996C155.216 23.406 156.653 23.86 157.372 24.0616V42.8267H147.981L144.902 31.6281C144.287 30.4175 142.645 29.4087 139.976 28.6015C137.308 27.6935 134.332 27.2395 131.048 27.2395C126.429 27.2395 122.684 28.2486 119.81 30.2662C117.039 32.284 115.654 35.008 115.654 38.4381C115.654 41.4647 116.372 43.9871 117.809 46.0047C119.348 47.9217 121.247 49.4853 123.505 50.6959C125.763 51.9066 128.841 53.3191 132.741 54.9332L135.82 56.1439C141.567 58.3636 146.237 60.4823 149.828 62.4998C153.421 64.5177 156.397 67.1911 158.757 70.5204C161.22 73.7489 162.452 77.7341 162.452 82.4756C162.452 89.9414 159.476 95.8939 153.523 100.333C147.673 104.772 139.617 106.991 129.354 106.991C124.326 106.991 119.04 106.336 113.498 105.024C108.059 103.612 103.595 102.199 100.106 100.787V81.4163H110.112L112.883 93.2201Z" fill="url(#paint0_linear_298_8)"/>
<defs>
<linearGradient id="paint0_linear_298_8" x1="100.174" y1="105.327" x2="182.055" y2="60.8831" gradientUnits="userSpaceOnUse">
<stop stop-color="#9BE8F0"/>
<stop offset="0.185301" stop-color="#9BE8F0"/>
<stop offset="0.186879" stop-color="#75CEF8"/>
<stop offset="0.442597" stop-color="#75CEF8"/>
<stop offset="0.446755" stop-color="#0181CC"/>
<stop offset="0.736303" stop-color="#0181CC"/>
<stop offset="0.738702" stop-color="#0357B1"/>
<stop offset="1" stop-color="#0357B1"/>
</linearGradient>
</defs>
</svg>
