<svg width="24" height="24" viewBox="0 0 24 24" fill="none" xmlns="http://www.w3.org/2000/svg">
<g clip-path="url(#clip0_996_1082)">
<path d="M4 20H6V22H18V6H6V8H4V5C4 4.73478 4.10536 4.48043 4.29289 4.29289C4.48043 4.10536 4.73478 4 5 4H19C19.2652 4 19.5196 4.10536 19.7071 4.29289C19.8946 4.48043 20 4.73478 20 5V23C20 23.2652 19.8946 23.5196 19.7071 23.7071C19.5196 23.8946 19.2652 24 19 24H5C4.73478 24 4.48043 23.8946 4.29289 23.7071C4.10536 23.5196 4 23.2652 4 23V20ZM6 13H13V15H6V18L1 14L6 10V13Z" fill="black"/>
</g>
<defs>
<clipPath id="clip0_996_1082">
<rect width="24" height="24" fill="white"/>
</clipPath>
</defs>
</svg>
