<svg width="82" height="82" viewBox="0 0 82 82" fill="none" xmlns="http://www.w3.org/2000/svg">
<path d="M82 40.3051C82 18.0452 63.6437 0 41 0C18.3563 0 0 18.0452 0 40.3051V41.6949C0 63.9548 18.3563 82 41 82C63.6437 82 82 63.9548 82 41.6949V40.3051Z" fill="white"/>
<path d="M29.4429 61.1524C30.1163 62.1451 31.5301 63.0386 33.6843 63.8328C35.906 64.627 38.2286 65.0241 40.6523 65.0241C44.4897 65.0241 47.3173 64.2962 49.135 62.84C50.9528 61.3841 51.8616 59.3655 51.8616 56.7844C51.8616 54.9974 51.2895 53.4422 50.1449 52.1185C49.0005 50.795 47.3848 49.6367 45.2976 48.6439C43.2779 47.5851 40.3493 46.3277 36.5119 44.8715C31.3281 42.9524 27.5242 40.6691 25.1006 38.0216C22.7444 35.3083 21.5661 31.7674 21.5661 27.3994C21.5661 24.4875 22.4414 21.9393 24.1917 19.7553C26.0094 17.5713 28.4668 15.8836 31.5636 14.6924C34.7279 13.435 38.2286 12.8062 42.0661 12.8062C45.1631 12.8062 47.856 13.0379 50.1449 13.5011C52.5013 13.9645 54.3863 14.4277 55.8001 14.8909C57.2139 15.3543 58.1565 15.6521 58.6277 15.7844V28.0943H52.4676L50.4479 20.748C50.0439 19.9539 48.9668 19.2921 47.2163 18.7626C45.466 18.1669 43.5136 17.8691 41.3592 17.8691C38.3296 17.8691 35.8725 18.5311 33.9873 19.8546C32.1695 21.1783 31.2607 22.9652 31.2607 25.2154C31.2607 27.2008 31.7321 28.8555 32.6745 30.179C33.6843 31.4366 34.9299 32.4623 36.4109 33.2565C37.8922 34.0507 39.9119 34.9773 42.47 36.0362L44.4897 36.8304C48.2599 38.2865 51.3232 39.6763 53.6794 40.9999C56.0358 42.3236 57.9882 44.0773 59.5365 46.2614C61.1523 48.3793 61.9602 50.9935 61.9602 54.104C61.9602 59.0015 60.0079 62.9064 56.103 65.8182C52.2656 68.7303 46.9808 70.1863 40.2483 70.1863C36.9496 70.1863 33.4823 69.7562 29.8469 68.8957C26.2789 67.9693 23.3503 67.0427 21.0612 66.1161V53.409H27.6252L29.4429 61.1524Z" fill="url(#paint0_linear_602_289)"/>
<defs>
<linearGradient id="paint0_linear_602_289" x1="21.1058" y1="69.0943" x2="74.8198" y2="39.9393" gradientUnits="userSpaceOnUse">
<stop stop-color="#9BE8F0"/>
<stop offset="0.185301" stop-color="#9BE8F0"/>
<stop offset="0.186879" stop-color="#75CEF8"/>
<stop offset="0.442597" stop-color="#75CEF8"/>
<stop offset="0.446755" stop-color="#0181CC"/>
<stop offset="0.736303" stop-color="#0181CC"/>
<stop offset="0.738702" stop-color="#0357B1"/>
<stop offset="1" stop-color="#0357B1"/>
</linearGradient>
</defs>
</svg>
