<svg width="17" height="19" viewBox="0 0 17 19" fill="none" xmlns="http://www.w3.org/2000/svg">
<path d="M11.3888 15.1664H5.72223C5.72223 15.9178 6.02073 16.6385 6.55208 17.1698C7.08342 17.7011 7.80407 17.9996 8.5555 17.9996C9.30693 17.9996 10.0276 17.7011 10.5589 17.1698C11.0903 16.6385 11.3888 15.9178 11.3888 15.1664Z" stroke="#344054" stroke-linecap="round" stroke-linejoin="round"/>
<path d="M15.5254 11.7474C15.9007 12.1233 16.1114 12.6329 16.1111 13.164C16.1111 13.427 16.0593 13.6874 15.9587 13.9303C15.858 14.1732 15.7106 14.394 15.5246 14.5799C15.3387 14.7658 15.118 14.9133 14.875 15.0139C14.6321 15.1146 14.3717 15.1664 14.1088 15.1664H3.00233C2.73936 15.1664 2.47896 15.1147 2.236 15.0141C1.99304 14.9135 1.77228 14.766 1.58634 14.58C1.40039 14.3941 1.2529 14.1733 1.1523 13.9304C1.05169 13.6874 0.999941 13.427 1 13.164C0.999739 12.6329 1.21041 12.1233 1.58569 11.7474L2.889 10.4441V6.66655C2.889 5.16369 3.48601 3.72238 4.54869 2.65969C5.61138 1.59701 7.05269 1 8.55555 1C10.0584 1 11.4997 1.59701 12.5624 2.65969C13.6251 3.72238 14.2221 5.16369 14.2221 6.66655V10.4441L15.5254 11.7474Z" stroke="black" stroke-linecap="round" stroke-linejoin="round"/>
</svg>
