<svg width="11" height="10" viewBox="0 0 11 10" fill="none" xmlns="http://www.w3.org/2000/svg">
<path d="M7.67358 6.41533L7.39553 6.68181C7.39553 6.68181 6.7337 7.31475 4.92788 5.5865C3.12206 3.85825 3.78389 3.22531 3.78389 3.22531L3.95866 3.05707C4.39072 2.64413 4.43166 1.98059 4.05461 1.49588L3.28461 0.505874C2.81773 -0.0941305 1.91634 -0.173543 1.38163 0.338226L0.422187 1.25588C0.157578 1.51 -0.0196434 1.83824 0.00174532 2.20295C0.056745 3.13648 0.49552 5.14415 2.94239 7.48652C5.53776 9.97007 7.97303 10.0689 8.96852 9.97948C9.28385 9.95124 9.55763 9.79713 9.77824 9.58536L10.646 8.75476C11.2327 8.19417 11.0677 7.2324 10.3172 6.84004L9.15002 6.22886C8.65747 5.9718 8.05858 6.0471 7.67358 6.41533Z" fill="#FFE7E7"/>
</svg>
