<svg width="377" height="56" viewBox="0 0 377 56" fill="none" xmlns="http://www.w3.org/2000/svg">
<g filter="url(#filter0_d_39_20)">
<path d="M12.0131 17.3788C10.5483 17.3788 9.11805 17.139 7.72216 16.6595C6.32633 16.1645 5.08559 15.4684 4 14.5713L6.14545 12.1582C7.19663 12.9935 8.20473 13.5968 9.16975 13.968C10.152 14.3393 11.1859 14.5249 12.2716 14.5249C13.0298 14.5249 13.6847 14.4475 14.2359 14.2928C14.7874 14.1227 15.2096 13.8829 15.5025 13.5735C15.8127 13.2642 15.9678 12.9007 15.9678 12.483C15.9678 11.9262 15.7438 11.5008 15.2957 11.2069C14.8477 10.8975 14.081 10.6578 12.9954 10.4876L9.40238 9.93075C7.86869 9.69872 6.69688 9.21144 5.88696 8.46896C5.09426 7.72647 4.69791 6.76744 4.69791 5.59184C4.69791 4.58639 4.98225 3.71242 5.55092 2.96993C6.13683 2.22745 6.95537 1.66287 8.00656 1.27615C9.07497 0.873975 10.3416 0.672877 11.8063 0.672877C13.1332 0.672877 14.4513 0.873975 15.761 1.27615C17.0879 1.67833 18.2597 2.2352 19.2764 2.94674L17.2602 5.45261C15.3647 4.15326 13.4606 3.5036 11.5478 3.5036C10.8758 3.5036 10.2899 3.58093 9.79012 3.73561C9.29037 3.8903 8.90265 4.10685 8.62693 4.38529C8.36844 4.64825 8.23919 4.96536 8.23919 5.33661C8.23919 5.8316 8.43737 6.21832 8.83371 6.49675C9.23006 6.75971 9.89351 6.9608 10.8241 7.10001L14.2359 7.61046C16.0453 7.87342 17.3981 8.39162 18.2942 9.16504C19.1903 9.92299 19.6383 10.9285 19.6383 12.1814C19.6383 13.2333 19.3281 14.1536 18.7078 14.9425C18.0874 15.7159 17.1999 16.3192 16.0453 16.7523C14.908 17.17 13.564 17.3788 12.0131 17.3788ZM26.4161 17.1468V3.87484H20.3158V0.904909H36.2386V3.87484H30.1641V17.1468H26.4161ZM38.3415 17.1468V0.904909H43.1494L48.1123 9.67551L53.0753 0.904909H57.8831V17.1468H54.3419V5.19741L48.0606 15.9866L41.8052 5.151V17.1468H38.3415ZM61.1358 17.1468V0.904909H64.8838V17.1468H61.1358ZM73.3784 17.1468V0.904909H77.1264V17.1468H73.3784ZM80.189 17.1468V5.05818H83.7303V6.05591C84.747 5.23608 86.0049 4.82616 87.5042 4.82616C88.5554 4.82616 89.4773 5.03497 90.27 5.45261C91.0799 5.85479 91.7089 6.41941 92.157 7.14642C92.605 7.85797 92.829 8.69325 92.829 9.65229V17.1468H89.2877V10.1164C89.2877 9.32747 89.0379 8.70874 88.5381 8.26016C88.0384 7.79611 87.3577 7.56408 86.4961 7.56408C85.8929 7.56408 85.3587 7.67236 84.8935 7.88891C84.4282 8.09 84.0404 8.38389 83.7303 8.7706V17.1468H80.189ZM101.517 17.3324C100.018 17.3324 98.8809 17.0308 98.1054 16.4275C97.3472 15.8088 96.9675 14.9116 96.9675 13.736V7.70328H94.2022V5.05818H96.9675V1.97221L100.509 1.25293V5.05818H104.361V7.70328H100.509V13.0863C100.509 13.6432 100.647 14.0454 100.923 14.2928C101.199 14.5249 101.681 14.6409 102.37 14.6409C102.715 14.6409 103.025 14.6254 103.301 14.5945C103.594 14.5481 103.913 14.4707 104.257 14.3624V16.9844C103.896 17.0926 103.439 17.1777 102.887 17.2396C102.353 17.3015 101.897 17.3324 101.517 17.3324ZM112.528 17.3788C111.184 17.3788 109.96 17.1004 108.857 16.5435C107.772 15.9866 106.91 15.2364 106.273 14.2928C105.635 13.3493 105.316 12.2897 105.316 11.1141C105.316 9.93848 105.618 8.87887 106.221 7.93529C106.841 6.99172 107.677 6.24152 108.728 5.68466C109.779 5.1278 110.951 4.84935 112.244 4.84935C113.536 4.84935 114.682 5.13552 115.681 5.70785C116.681 6.28018 117.465 7.0536 118.034 8.02811C118.62 9.00262 118.913 10.1086 118.913 11.3461V12.1814H108.935C109.09 12.6609 109.34 13.094 109.685 13.4808C110.046 13.8675 110.486 14.1691 111.003 14.3857C111.537 14.6022 112.106 14.7105 112.709 14.7105C113.312 14.7105 113.863 14.6254 114.363 14.4553C114.88 14.2851 115.32 14.0453 115.681 13.736L118.008 15.6386C117.181 16.2419 116.328 16.6827 115.449 16.9612C114.587 17.2396 113.614 17.3788 112.528 17.3788ZM108.883 9.90753H115.423C115.302 9.42801 115.078 9.01037 114.751 8.65459C114.441 8.28335 114.062 7.99718 113.614 7.79609C113.183 7.57954 112.7 7.47126 112.166 7.47126C111.615 7.47126 111.115 7.57179 110.667 7.77288C110.219 7.97397 109.84 8.26013 109.529 8.63138C109.237 8.98715 109.021 9.41254 108.883 9.90753ZM121.082 17.1468V5.05818H124.624V6.40393C125.054 5.878 125.571 5.47584 126.174 5.19741C126.778 4.91897 127.458 4.77975 128.216 4.77975C128.871 4.79522 129.362 4.88803 129.69 5.05818V7.8425C129.431 7.73423 129.147 7.65686 128.837 7.61046C128.527 7.54858 128.208 7.51767 127.88 7.51767C127.191 7.51767 126.562 7.67233 125.993 7.9817C125.425 8.29107 124.968 8.73193 124.624 9.30427V17.1468H121.082ZM135.546 17.3556C134.581 17.3556 133.728 17.2009 132.987 16.8915C132.246 16.5667 131.669 16.1259 131.255 15.569C130.842 15.0121 130.635 14.3702 130.635 13.6432C130.635 12.483 131.117 11.5859 132.082 10.9517C133.065 10.302 134.409 9.97716 136.115 9.97716C137.287 9.97716 138.39 10.1396 139.424 10.4644V9.58269C139.424 8.88661 139.182 8.3607 138.7 8.00492C138.217 7.64915 137.511 7.47126 136.58 7.47126C136.011 7.47126 135.4 7.55634 134.745 7.7265C134.09 7.88118 133.332 8.12865 132.47 8.46896L131.178 6.12551C132.246 5.69239 133.263 5.36756 134.228 5.151C135.21 4.93444 136.192 4.82616 137.175 4.82616C138.984 4.82616 140.389 5.22061 141.388 6.0095C142.405 6.78292 142.913 7.88117 142.913 9.30427V17.1468H139.424V16.2883C138.872 16.6595 138.278 16.9302 137.64 17.1004C137.002 17.2705 136.304 17.3556 135.546 17.3556ZM133.995 13.5735C133.995 14.0376 134.219 14.4088 134.667 14.6873C135.115 14.9502 135.71 15.0817 136.451 15.0817C137.037 15.0817 137.58 15.0199 138.079 14.8961C138.579 14.7569 139.027 14.5558 139.424 14.2928V12.5294C138.993 12.3748 138.545 12.2588 138.079 12.1814C137.614 12.1041 137.114 12.0654 136.58 12.0654C135.77 12.0654 135.133 12.2046 134.667 12.483C134.219 12.746 133.995 13.1095 133.995 13.5735ZM152.03 17.3788C150.703 17.3788 149.505 17.1081 148.437 16.5667C147.368 16.0098 146.524 15.2596 145.903 14.316C145.283 13.357 144.973 12.2897 144.973 11.1141C144.973 9.92301 145.283 8.85568 145.903 7.9121C146.524 6.96853 147.368 6.21831 148.437 5.66144C149.505 5.10458 150.703 4.82616 152.03 4.82616C153.098 4.82616 154.115 5.01177 155.08 5.38301C156.062 5.75426 156.906 6.28792 157.613 6.984L155.442 9.04903C154.942 8.55404 154.416 8.19054 153.865 7.95851C153.331 7.71102 152.745 7.58727 152.107 7.58727C151.418 7.58727 150.798 7.74196 150.246 8.05133C149.712 8.3607 149.281 8.77834 148.954 9.30427C148.643 9.83019 148.488 10.4335 148.488 11.1141C148.488 11.7638 148.643 12.3593 148.954 12.9007C149.281 13.4266 149.729 13.8442 150.298 14.1536C150.866 14.4475 151.495 14.5945 152.185 14.5945C152.788 14.5945 153.348 14.4862 153.865 14.2696C154.399 14.0376 154.907 13.6973 155.39 13.2487L157.51 15.2442C156.82 15.9093 155.993 16.4352 155.028 16.8219C154.063 17.1932 153.064 17.3788 152.03 17.3788ZM165.987 17.3324C164.488 17.3324 163.351 17.0308 162.575 16.4275C161.817 15.8088 161.438 14.9116 161.438 13.736V7.70328H158.672V5.05818H161.438V1.97221L164.979 1.25293V5.05818H168.831V7.70328H164.979V13.0863C164.979 13.6432 165.117 14.0454 165.393 14.2928C165.669 14.5249 166.151 14.6409 166.84 14.6409C167.185 14.6409 167.495 14.6254 167.771 14.5945C168.064 14.5481 168.383 14.4707 168.727 14.3624V16.9844C168.365 17.0926 167.909 17.1777 167.357 17.2396C166.823 17.3015 166.367 17.3324 165.987 17.3324ZM170.558 17.1468V5.05818H174.1V17.1468H170.558ZM172.316 3.61961C171.765 3.61961 171.291 3.44172 170.894 3.08594C170.498 2.73017 170.3 2.30478 170.3 1.80979C170.3 1.29933 170.498 0.873955 170.894 0.533649C171.291 0.177874 171.765 0 172.316 0C172.885 0 173.359 0.177874 173.738 0.533649C174.134 0.873955 174.332 1.29933 174.332 1.80979C174.332 2.30478 174.134 2.73017 173.738 3.08594C173.359 3.44172 172.885 3.61961 172.316 3.61961ZM181.238 17.1468L175.473 5.05818H179.325L183.021 13.1095L186.692 5.05818H190.466L184.676 17.1468H181.238ZM198.076 17.3788C196.732 17.3788 195.508 17.1004 194.405 16.5435C193.32 15.9866 192.458 15.2364 191.821 14.2928C191.183 13.3493 190.864 12.2897 190.864 11.1141C190.864 9.93848 191.166 8.87887 191.769 7.93529C192.389 6.99172 193.225 6.24152 194.276 5.68466C195.327 5.1278 196.499 4.84935 197.792 4.84935C199.084 4.84935 200.23 5.13552 201.229 5.70785C202.229 6.28018 203.013 7.0536 203.582 8.02811C204.168 9.00262 204.461 10.1086 204.461 11.3461V12.1814H194.483C194.638 12.6609 194.888 13.094 195.233 13.4808C195.594 13.8675 196.034 14.1691 196.551 14.3857C197.085 14.6022 197.654 14.7105 198.257 14.7105C198.86 14.7105 199.411 14.6254 199.911 14.4553C200.428 14.2851 200.868 14.0453 201.229 13.736L203.556 15.6386C202.729 16.2419 201.876 16.6827 200.997 16.9612C200.135 17.2396 199.162 17.3788 198.076 17.3788ZM194.431 9.90753H200.971C200.85 9.42801 200.626 9.01037 200.299 8.65459C199.989 8.28335 199.61 7.99718 199.162 7.79609C198.731 7.57954 198.248 7.47126 197.714 7.47126C197.163 7.47126 196.663 7.57179 196.215 7.77288C195.767 7.97397 195.388 8.26013 195.077 8.63138C194.785 8.98715 194.569 9.41254 194.431 9.90753ZM212.063 17.1468V0.904909H216.871L221.834 9.67551L226.797 0.904909H231.605V17.1468H228.064V5.19741L221.782 15.9866L215.527 5.151V17.1468H212.063ZM238.663 17.3556C237.698 17.3556 236.845 17.2009 236.104 16.8915C235.363 16.5667 234.786 16.1259 234.372 15.569C233.959 15.0121 233.752 14.3702 233.752 13.6432C233.752 12.483 234.235 11.5859 235.2 10.9517C236.182 10.302 237.526 9.97716 239.232 9.97716C240.404 9.97716 241.507 10.1396 242.541 10.4644V9.58269C242.541 8.88661 242.299 8.3607 241.817 8.00492C241.334 7.64915 240.628 7.47126 239.697 7.47126C239.129 7.47126 238.517 7.55634 237.862 7.7265C237.207 7.88118 236.449 8.12865 235.587 8.46896L234.295 6.12551C235.363 5.69239 236.38 5.36756 237.345 5.151C238.327 4.93444 239.309 4.82616 240.292 4.82616C242.101 4.82616 243.506 5.22061 244.505 6.0095C245.522 6.78292 246.03 7.88117 246.03 9.30427V17.1468H242.541V16.2883C241.989 16.6595 241.395 16.9302 240.757 17.1004C240.119 17.2705 239.422 17.3556 238.663 17.3556ZM237.112 13.5735C237.112 14.0376 237.336 14.4088 237.784 14.6873C238.232 14.9502 238.827 15.0817 239.568 15.0817C240.154 15.0817 240.697 15.0199 241.196 14.8961C241.696 14.7569 242.144 14.5558 242.541 14.2928V12.5294C242.11 12.3748 241.662 12.2588 241.196 12.1814C240.731 12.1041 240.231 12.0654 239.697 12.0654C238.887 12.0654 238.25 12.2046 237.784 12.483C237.336 12.746 237.112 13.1095 237.112 13.5735ZM248.71 17.1468V5.05818H252.252V6.05591C253.268 5.23608 254.526 4.82616 256.026 4.82616C257.077 4.82616 257.999 5.03497 258.791 5.45261C259.601 5.85479 260.23 6.41941 260.678 7.14642C261.126 7.85797 261.35 8.69325 261.35 9.65229V17.1468H257.809V10.1164C257.809 9.32747 257.559 8.70874 257.06 8.26016C256.56 7.79611 255.879 7.56408 255.017 7.56408C254.414 7.56408 253.88 7.67236 253.415 7.88891C252.95 8.09 252.562 8.38389 252.252 8.7706V17.1468H248.71ZM268.324 17.3556C267.359 17.3556 266.506 17.2009 265.765 16.8915C265.024 16.5667 264.446 16.1259 264.033 15.569C263.619 15.0121 263.412 14.3702 263.412 13.6432C263.412 12.483 263.895 11.5859 264.86 10.9517C265.842 10.302 267.186 9.97716 268.892 9.97716C270.064 9.97716 271.167 10.1396 272.201 10.4644V9.58269C272.201 8.88661 271.96 8.3607 271.477 8.00492C270.995 7.64915 270.288 7.47126 269.358 7.47126C268.789 7.47126 268.177 7.55634 267.522 7.7265C266.867 7.88118 266.109 8.12865 265.248 8.46896L263.955 6.12551C265.024 5.69239 266.04 5.36756 267.005 5.151C267.988 4.93444 268.97 4.82616 269.952 4.82616C271.762 4.82616 273.166 5.22061 274.165 6.0095C275.182 6.78292 275.691 7.88117 275.691 9.30427V17.1468H272.201V16.2883C271.65 16.6595 271.055 16.9302 270.417 17.1004C269.78 17.2705 269.082 17.3556 268.324 17.3556ZM266.773 13.5735C266.773 14.0376 266.997 14.4088 267.445 14.6873C267.893 14.9502 268.487 15.0817 269.228 15.0817C269.814 15.0817 270.357 15.0199 270.857 14.8961C271.357 14.7569 271.805 14.5558 272.201 14.2928V12.5294C271.77 12.3748 271.322 12.2588 270.857 12.1814C270.392 12.1041 269.892 12.0654 269.358 12.0654C268.548 12.0654 267.91 12.2046 267.445 12.483C266.997 12.746 266.773 13.1095 266.773 13.5735ZM285.143 22.1121C284.109 22.1121 283.11 22.0116 282.145 21.8105C281.18 21.6249 280.309 21.3542 279.534 20.9984L280.775 18.5389C281.516 18.8638 282.239 19.1035 282.946 19.2582C283.652 19.4129 284.359 19.4903 285.066 19.4903C286.117 19.4903 286.909 19.2891 287.444 18.887C287.995 18.4848 288.271 17.8815 288.271 17.0772V16.1259C287.168 16.8529 285.936 17.2164 284.574 17.2164C283.299 17.2164 282.145 16.9457 281.111 16.4043C280.094 15.8474 279.275 15.0972 278.655 14.1536C278.052 13.21 277.75 12.1659 277.75 11.0213C277.75 9.8766 278.052 8.84021 278.655 7.9121C279.275 6.984 280.111 6.24925 281.162 5.70785C282.214 5.15099 283.385 4.87254 284.678 4.87254C285.333 4.87254 285.97 4.95762 286.591 5.12778C287.211 5.29793 287.788 5.53771 288.322 5.84708V5.05818H291.812V17.1236C291.812 18.7168 291.235 19.9466 290.08 20.8128C288.943 21.679 287.297 22.1121 285.143 22.1121ZM285.117 14.5249C285.772 14.5249 286.367 14.4321 286.901 14.2464C287.435 14.0453 287.892 13.7669 288.271 13.4111V8.67778C287.892 8.33748 287.426 8.07454 286.875 7.88891C286.341 7.68782 285.763 7.58727 285.143 7.58727C284.402 7.58727 283.739 7.74196 283.153 8.05133C282.567 8.34523 282.102 8.75515 281.757 9.28108C281.412 9.79154 281.24 10.3716 281.24 11.0213C281.24 11.6864 281.404 12.2819 281.731 12.8079C282.076 13.3338 282.541 13.7515 283.127 14.0608C283.73 14.3702 284.393 14.5249 285.117 14.5249ZM301.168 17.3788C299.824 17.3788 298.601 17.1004 297.498 16.5435C296.412 15.9866 295.55 15.2364 294.913 14.2928C294.275 13.3493 293.956 12.2897 293.956 11.1141C293.956 9.93848 294.258 8.87887 294.861 7.93529C295.482 6.99172 296.317 6.24152 297.368 5.68466C298.42 5.1278 299.591 4.84935 300.884 4.84935C302.176 4.84935 303.322 5.13552 304.322 5.70785C305.321 6.28018 306.105 7.0536 306.674 8.02811C307.26 9.00262 307.553 10.1086 307.553 11.3461V12.1814H297.575C297.73 12.6609 297.98 13.094 298.325 13.4808C298.687 13.8675 299.126 14.1691 299.643 14.3857C300.177 14.6022 300.746 14.7105 301.349 14.7105C301.952 14.7105 302.504 14.6254 303.003 14.4553C303.52 14.2851 303.96 14.0453 304.322 13.736L306.648 15.6386C305.821 16.2419 304.968 16.6827 304.089 16.9612C303.227 17.2396 302.254 17.3788 301.168 17.3788ZM297.524 9.90753H304.063C303.943 9.42801 303.719 9.01037 303.391 8.65459C303.081 8.28335 302.702 7.99718 302.254 7.79609C301.823 7.57954 301.341 7.47126 300.806 7.47126C300.255 7.47126 299.755 7.57179 299.307 7.77288C298.859 7.97397 298.48 8.26013 298.17 8.63138C297.877 8.98715 297.661 9.41254 297.524 9.90753ZM309.723 17.1468V5.05818H313.264V5.98628C314.229 5.21285 315.401 4.82616 316.779 4.82616C317.658 4.82616 318.442 4.98858 319.132 5.31342C319.821 5.62278 320.389 6.06362 320.837 6.63595C321.389 6.04815 322.035 5.59957 322.776 5.2902C323.534 4.98083 324.37 4.82616 325.283 4.82616C326.3 4.82616 327.188 5.03497 327.946 5.45261C328.721 5.85479 329.324 6.41941 329.755 7.14642C330.203 7.85797 330.427 8.69325 330.427 9.65229V17.1468H326.912V10.1164C326.912 9.32747 326.679 8.70874 326.214 8.26016C325.749 7.79611 325.128 7.56408 324.353 7.56408C323.819 7.56408 323.328 7.6646 322.88 7.86569C322.449 8.06678 322.078 8.36842 321.768 8.7706C321.785 8.90982 321.803 9.04904 321.82 9.18826C321.837 9.32747 321.846 9.48214 321.846 9.65229V17.1468H318.304V10.1164C318.304 9.32747 318.072 8.70874 317.606 8.26016C317.158 7.79611 316.547 7.56408 315.771 7.56408C315.237 7.56408 314.754 7.65688 314.324 7.8425C313.91 8.02813 313.557 8.30654 313.264 8.67778V17.1468H309.723ZM339.714 17.3788C338.37 17.3788 337.146 17.1004 336.044 16.5435C334.958 15.9866 334.096 15.2364 333.459 14.2928C332.821 13.3493 332.502 12.2897 332.502 11.1141C332.502 9.93848 332.804 8.87887 333.407 7.93529C334.027 6.99172 334.863 6.24152 335.914 5.68466C336.965 5.1278 338.137 4.84935 339.43 4.84935C340.722 4.84935 341.868 5.13552 342.868 5.70785C343.867 6.28018 344.651 7.0536 345.22 8.02811C345.806 9.00262 346.099 10.1086 346.099 11.3461V12.1814H336.121C336.276 12.6609 336.526 13.094 336.871 13.4808C337.233 13.8675 337.672 14.1691 338.189 14.3857C338.723 14.6022 339.292 14.7105 339.895 14.7105C340.498 14.7105 341.05 14.6254 341.549 14.4553C342.066 14.2851 342.506 14.0453 342.868 13.736L345.194 15.6386C344.367 16.2419 343.514 16.6827 342.635 16.9612C341.773 17.2396 340.8 17.3788 339.714 17.3788ZM336.069 9.90753H342.609C342.488 9.42801 342.264 9.01037 341.937 8.65459C341.627 8.28335 341.248 7.99718 340.8 7.79609C340.369 7.57954 339.886 7.47126 339.352 7.47126C338.801 7.47126 338.301 7.57179 337.853 7.77288C337.405 7.97397 337.026 8.26013 336.716 8.63138C336.423 8.98715 336.207 9.41254 336.069 9.90753ZM348.268 17.1468V5.05818H351.81V6.05591C352.826 5.23608 354.084 4.82616 355.584 4.82616C356.635 4.82616 357.557 5.03497 358.349 5.45261C359.159 5.85479 359.788 6.41941 360.236 7.14642C360.684 7.85797 360.908 8.69325 360.908 9.65229V17.1468H357.367V10.1164C357.367 9.32747 357.117 8.70874 356.618 8.26016C356.118 7.79611 355.437 7.56408 354.575 7.56408C353.972 7.56408 353.438 7.67236 352.973 7.88891C352.508 8.09 352.12 8.38389 351.81 8.7706V17.1468H348.268ZM369.597 17.3324C368.098 17.3324 366.96 17.0308 366.185 16.4275C365.427 15.8088 365.047 14.9116 365.047 13.736V7.70328H362.282V5.05818H365.047V1.97221L368.589 1.25293V5.05818H372.44V7.70328H368.589V13.0863C368.589 13.6432 368.727 14.0454 369.002 14.2928C369.278 14.5249 369.761 14.6409 370.45 14.6409C370.794 14.6409 371.105 14.6254 371.38 14.5945C371.673 14.5481 371.992 14.4707 372.337 14.3624V16.9844C371.975 17.0926 371.518 17.1777 370.967 17.2396C370.433 17.3015 369.976 17.3324 369.597 17.3324Z" fill="url(#paint0_linear_39_20)"/>
<path d="M48.59 42.283V26.0411H57.6629C58.8519 26.0411 59.8945 26.2577 60.7906 26.6908C61.7039 27.1239 62.4191 27.7272 62.936 28.5006C63.453 29.2586 63.7115 30.1403 63.7115 31.1457C63.7115 32.1048 63.453 32.9633 62.936 33.7212C62.4191 34.4792 61.7039 35.0747 60.7906 35.5078C59.8773 35.941 58.8347 36.1575 57.6629 36.1575H52.3381V42.283H48.59ZM52.3381 33.3732H57.2493C58.0592 33.3732 58.7055 33.1721 59.188 32.7699C59.6877 32.3677 59.9376 31.8341 59.9376 31.1689C59.9376 30.4883 59.6877 29.9469 59.188 29.5447C58.7055 29.1426 58.0592 28.9415 57.2493 28.9415H52.3381V33.3732ZM65.9517 42.283V26.0411L69.493 25.5075V42.283H65.9517ZM76.5535 42.4918C75.5885 42.4918 74.7354 42.3371 73.9944 42.0278C73.2535 41.7029 72.6762 41.2621 72.2626 40.7052C71.849 40.1484 71.6422 39.5064 71.6422 38.7794C71.6422 37.6193 72.1247 36.7221 73.0897 36.0879C74.072 35.4382 75.4161 35.1134 77.1222 35.1134C78.294 35.1134 79.3968 35.2758 80.4308 35.6007V34.7189C80.4308 34.0229 80.1895 33.4969 79.707 33.1412C79.2245 32.7854 78.518 32.6075 77.5874 32.6075C77.0188 32.6075 76.407 32.6926 75.7522 32.8627C75.0973 33.0174 74.3391 33.2649 73.4775 33.6052L72.185 31.2617C73.2535 30.8286 74.2702 30.5038 75.2352 30.2872C76.2174 30.0707 77.1997 29.9624 78.1819 29.9624C79.9914 29.9624 81.3958 30.3568 82.3953 31.1457C83.412 31.9192 83.9204 33.0174 83.9204 34.4405V42.283H80.4308V41.4245C79.8793 41.7958 79.2848 42.0665 78.6472 42.2366C78.0096 42.4068 77.3117 42.4918 76.5535 42.4918ZM75.0026 38.7098C75.0026 39.1738 75.2266 39.5451 75.6746 39.8235C76.1227 40.0865 76.7172 40.218 77.4582 40.218C78.0441 40.218 78.5869 40.1561 79.0867 40.0324C79.5864 39.8931 80.0344 39.6921 80.4308 39.4291V37.6657C80 37.511 79.5519 37.395 79.0867 37.3177C78.6214 37.2403 78.1216 37.2016 77.5874 37.2016C76.7775 37.2016 76.1399 37.3408 75.6746 37.6193C75.2266 37.8822 75.0026 38.2457 75.0026 38.7098ZM92.6066 42.4686C91.1074 42.4686 89.97 42.167 89.1946 41.5637C88.4364 40.945 88.0572 40.0478 88.0572 38.8722V32.8395H85.2914V30.1944H88.0572V27.1084L91.5985 26.3892V30.1944H95.45V32.8395H91.5985V38.2225C91.5985 38.7794 91.7364 39.1816 92.0121 39.4291C92.2878 39.6611 92.7703 39.7771 93.4596 39.7771C93.8043 39.7771 94.1145 39.7616 94.3902 39.7307C94.6831 39.6843 95.0019 39.607 95.3466 39.4987V42.1206C94.9847 42.2289 94.528 42.314 93.9766 42.3758C93.4424 42.4377 92.9857 42.4686 92.6066 42.4686ZM99.4975 42.283V32.8395H96.499V30.1944H99.4975V29.0343C99.4975 27.6731 99.9369 26.6367 100.816 25.9251C101.695 25.1981 102.961 24.8346 104.616 24.8346C104.977 24.8346 105.348 24.8501 105.727 24.881C106.106 24.9119 106.434 24.9661 106.709 25.0434V27.7117C106.382 27.6499 106.097 27.6034 105.856 27.5725C105.615 27.5416 105.348 27.5261 105.055 27.5261C104.383 27.5261 103.875 27.6576 103.53 27.9206C103.202 28.1681 103.039 28.5625 103.039 29.1039V30.1944H106.709V32.8395H103.039V42.283H99.4975ZM114.572 42.515C113.228 42.515 112.013 42.2366 110.927 41.6798C109.842 41.1229 108.98 40.3727 108.343 39.4291C107.705 38.4855 107.386 37.4259 107.386 36.2503C107.386 35.0747 107.696 34.0151 108.317 33.0715C108.954 32.1125 109.816 31.3545 110.902 30.7977C112.004 30.2408 113.228 29.9624 114.572 29.9624C115.916 29.9624 117.131 30.2408 118.217 30.7977C119.32 31.3545 120.181 32.1125 120.802 33.0715C121.439 34.0151 121.758 35.0747 121.758 36.2503C121.758 37.4259 121.439 38.4855 120.802 39.4291C120.181 40.3727 119.328 41.1229 118.243 41.6798C117.157 42.2366 115.933 42.515 114.572 42.515ZM114.572 39.7539C115.279 39.7539 115.908 39.5992 116.459 39.2899C117.028 38.9805 117.476 38.5629 117.803 38.0369C118.148 37.4955 118.32 36.9 118.32 36.2503C118.32 35.5852 118.148 34.9896 117.803 34.4637C117.476 33.9378 117.028 33.5201 116.459 33.2108C115.908 32.8859 115.279 32.7235 114.572 32.7235C113.883 32.7235 113.254 32.8859 112.685 33.2108C112.116 33.5201 111.668 33.9378 111.341 34.4637C111.014 34.9896 110.85 35.5852 110.85 36.2503C110.85 36.9 111.014 37.4955 111.341 38.0369C111.668 38.5629 112.116 38.9805 112.685 39.2899C113.254 39.5992 113.883 39.7539 114.572 39.7539ZM123.935 42.283V30.1944H127.476V31.5402C127.907 31.0142 128.424 30.6121 129.027 30.3336C129.63 30.0552 130.311 29.916 131.069 29.916C131.724 29.9315 132.215 30.0243 132.542 30.1944V32.9787C132.284 32.8705 132 32.7931 131.689 32.7467C131.379 32.6848 131.06 32.6539 130.733 32.6539C130.044 32.6539 129.415 32.8086 128.846 33.1179C128.277 33.4273 127.821 33.8682 127.476 34.4405V42.283H123.935ZM134.486 42.283V30.1944H138.028V31.1225C138.993 30.3491 140.165 29.9624 141.543 29.9624C142.422 29.9624 143.206 30.1248 143.895 30.4497C144.585 30.759 145.153 31.1999 145.601 31.7722C146.153 31.1844 146.799 30.7358 147.54 30.4264C148.298 30.1171 149.134 29.9624 150.047 29.9624C151.064 29.9624 151.952 30.1712 152.71 30.5889C153.485 30.991 154.088 31.5556 154.519 32.2827C154.967 32.9942 155.191 33.8295 155.191 34.7885V42.283H151.676V35.2526C151.676 34.4637 151.443 33.845 150.978 33.3964C150.513 32.9323 149.892 32.7003 149.117 32.7003C148.583 32.7003 148.091 32.8008 147.643 33.0019C147.213 33.203 146.842 33.5047 146.532 33.9068C146.549 34.0461 146.566 34.1853 146.584 34.3245C146.601 34.4637 146.609 34.6184 146.609 34.7885V42.283H143.068V35.2526C143.068 34.4637 142.836 33.845 142.37 33.3964C141.922 32.9323 141.31 32.7003 140.535 32.7003C140.001 32.7003 139.518 32.7931 139.087 32.9787C138.674 33.1644 138.321 33.4428 138.028 33.814V42.283H134.486ZM165.154 42.283V32.8395H162.156V30.1944H165.154V29.0343C165.154 27.6731 165.594 26.6367 166.473 25.9251C167.351 25.1981 168.618 24.8346 170.272 24.8346C170.634 24.8346 171.005 24.8501 171.384 24.881C171.763 24.9119 172.09 24.9661 172.366 25.0434V27.7117C172.039 27.6499 171.754 27.6034 171.513 27.5725C171.272 27.5416 171.005 27.5261 170.712 27.5261C170.04 27.5261 169.531 27.6576 169.187 27.9206C168.859 28.1681 168.696 28.5625 168.696 29.1039V30.1944H172.366V32.8395H168.696V42.283H165.154ZM180.229 42.515C178.885 42.515 177.67 42.2366 176.584 41.6798C175.499 41.1229 174.637 40.3727 173.999 39.4291C173.362 38.4855 173.043 37.4259 173.043 36.2503C173.043 35.0747 173.353 34.0151 173.974 33.0715C174.611 32.1125 175.473 31.3545 176.558 30.7977C177.661 30.2408 178.885 29.9624 180.229 29.9624C181.573 29.9624 182.788 30.2408 183.874 30.7977C184.977 31.3545 185.838 32.1125 186.459 33.0715C187.096 34.0151 187.415 35.0747 187.415 36.2503C187.415 37.4259 187.096 38.4855 186.459 39.4291C185.838 40.3727 184.985 41.1229 183.899 41.6798C182.814 42.2366 181.59 42.515 180.229 42.515ZM180.229 39.7539C180.936 39.7539 181.564 39.5992 182.116 39.2899C182.685 38.9805 183.133 38.5629 183.46 38.0369C183.805 37.4955 183.977 36.9 183.977 36.2503C183.977 35.5852 183.805 34.9896 183.46 34.4637C183.133 33.9378 182.685 33.5201 182.116 33.2108C181.564 32.8859 180.936 32.7235 180.229 32.7235C179.54 32.7235 178.911 32.8859 178.342 33.2108C177.773 33.5201 177.325 33.9378 176.998 34.4637C176.67 34.9896 176.507 35.5852 176.507 36.2503C176.507 36.9 176.67 37.4955 176.998 38.0369C177.325 38.5629 177.773 38.9805 178.342 39.2899C178.911 39.5992 179.54 39.7539 180.229 39.7539ZM189.592 42.283V30.1944H193.133V31.5402C193.564 31.0142 194.081 30.6121 194.684 30.3336C195.287 30.0552 195.968 29.916 196.726 29.916C197.381 29.9315 197.872 30.0243 198.199 30.1944V32.9787C197.941 32.8705 197.656 32.7931 197.346 32.7467C197.036 32.6848 196.717 32.6539 196.39 32.6539C195.701 32.6539 195.072 32.8086 194.503 33.1179C193.934 33.4273 193.478 33.8682 193.133 34.4405V42.283H189.592ZM205.576 42.283V26.0411H219.482V28.9647H209.324V32.6771H216.019V35.5078H209.324V39.3595H219.586V42.283H205.576ZM221.137 37.016V34.3245H230.856V37.016H221.137ZM233.312 42.283V26.0411L236.853 25.5075V42.283H233.312ZM246.214 42.515C244.87 42.515 243.647 42.2366 242.544 41.6798C241.458 41.1229 240.597 40.3727 239.959 39.4291C239.321 38.4855 239.003 37.4259 239.003 36.2503C239.003 35.0747 239.304 34.0151 239.907 33.0715C240.528 32.128 241.363 31.3778 242.415 30.8209C243.466 30.264 244.638 29.9856 245.93 29.9856C247.222 29.9856 248.368 30.2718 249.368 30.8441C250.367 31.4164 251.151 32.1898 251.72 33.1644C252.306 34.1389 252.599 35.2449 252.599 36.4823V37.3177H242.621C242.776 37.7972 243.026 38.2303 243.371 38.617C243.733 39.0037 244.172 39.3053 244.689 39.5219C245.223 39.7385 245.792 39.8467 246.395 39.8467C246.998 39.8467 247.55 39.7617 248.05 39.5915C248.567 39.4214 249.006 39.1816 249.368 38.8722L251.694 40.7748C250.867 41.3781 250.014 41.819 249.135 42.0974C248.274 42.3758 247.3 42.515 246.214 42.515ZM242.57 35.0438H249.109C248.989 34.5642 248.765 34.1466 248.437 33.7908C248.127 33.4196 247.748 33.1334 247.3 32.9323C246.869 32.7158 246.387 32.6075 245.852 32.6075C245.301 32.6075 244.801 32.708 244.353 32.9091C243.905 33.1102 243.526 33.3964 243.216 33.7676C242.923 34.1234 242.708 34.5488 242.57 35.0438ZM258.984 42.4918C258.019 42.4918 257.166 42.3371 256.425 42.0278C255.684 41.7029 255.106 41.2621 254.693 40.7052C254.279 40.1484 254.072 39.5064 254.072 38.7794C254.072 37.6193 254.555 36.7221 255.52 36.0879C256.502 35.4382 257.846 35.1134 259.552 35.1134C260.724 35.1134 261.827 35.2758 262.861 35.6007V34.7189C262.861 34.0229 262.62 33.4969 262.137 33.1412C261.655 32.7854 260.948 32.6075 260.018 32.6075C259.449 32.6075 258.837 32.6926 258.182 32.8627C257.527 33.0174 256.769 33.2649 255.908 33.6052L254.615 31.2617C255.684 30.8286 256.7 30.5038 257.665 30.2872C258.648 30.0707 259.63 29.9624 260.612 29.9624C262.421 29.9624 263.826 30.3568 264.825 31.1457C265.842 31.9192 266.35 33.0174 266.35 34.4405V42.283H262.861V41.4245C262.309 41.7958 261.715 42.0665 261.077 42.2366C260.44 42.4068 259.742 42.4918 258.984 42.4918ZM257.433 38.7098C257.433 39.1738 257.657 39.5451 258.105 39.8235C258.553 40.0865 259.147 40.218 259.888 40.218C260.474 40.218 261.017 40.1561 261.517 40.0324C262.017 39.8931 262.465 39.6921 262.861 39.4291V37.6657C262.43 37.511 261.982 37.395 261.517 37.3177C261.051 37.2403 260.552 37.2016 260.018 37.2016C259.208 37.2016 258.57 37.3408 258.105 37.6193C257.657 37.8822 257.433 38.2457 257.433 38.7098ZM269.031 42.283V30.1944H272.572V31.5402C273.003 31.0142 273.52 30.6121 274.123 30.3336C274.726 30.0552 275.407 29.916 276.165 29.916C276.82 29.9315 277.311 30.0243 277.638 30.1944V32.9787C277.38 32.8705 277.096 32.7931 276.785 32.7467C276.475 32.6848 276.156 32.6539 275.829 32.6539C275.14 32.6539 274.511 32.8086 273.942 33.1179C273.373 33.4273 272.917 33.8682 272.572 34.4405V42.283H269.031ZM279.582 42.283V30.1944H283.124V31.1921C284.14 30.3723 285.398 29.9624 286.898 29.9624C287.949 29.9624 288.871 30.1712 289.663 30.5889C290.473 30.991 291.102 31.5556 291.55 32.2827C291.998 32.9942 292.222 33.8295 292.222 34.7885V42.283H288.681V35.2526C288.681 34.4637 288.431 33.845 287.932 33.3964C287.432 32.9323 286.751 32.7003 285.889 32.7003C285.286 32.7003 284.752 32.8086 284.287 33.0252C283.822 33.2262 283.434 33.5201 283.124 33.9068V42.283H279.582ZM294.905 42.283V30.1944H298.446V42.283H294.905ZM296.662 28.7558C296.111 28.7558 295.637 28.578 295.241 28.2222C294.844 27.8664 294.646 27.441 294.646 26.946C294.646 26.4356 294.844 26.0102 295.241 25.6699C295.637 25.3141 296.111 25.1362 296.662 25.1362C297.231 25.1362 297.705 25.3141 298.084 25.6699C298.48 26.0102 298.679 26.4356 298.679 26.946C298.679 27.441 298.48 27.8664 298.084 28.2222C297.705 28.578 297.231 28.7558 296.662 28.7558ZM301.216 42.283V30.1944H304.757V31.1921C305.774 30.3723 307.032 29.9624 308.531 29.9624C309.582 29.9624 310.504 30.1712 311.297 30.5889C312.107 30.991 312.736 31.5556 313.184 32.2827C313.632 32.9942 313.856 33.8295 313.856 34.7885V42.283H310.314V35.2526C310.314 34.4637 310.064 33.845 309.565 33.3964C309.065 32.9323 308.384 32.7003 307.523 32.7003C306.92 32.7003 306.385 32.8086 305.92 33.0252C305.455 33.2262 305.067 33.5201 304.757 33.9068V42.283H301.216ZM323.31 47.2484C322.276 47.2484 321.277 47.1478 320.312 46.9468C319.347 46.7611 318.477 46.4904 317.701 46.1347L318.942 43.6752C319.683 44 320.407 44.2398 321.113 44.3944C321.82 44.5491 322.526 44.6265 323.233 44.6265C324.284 44.6265 325.077 44.4254 325.611 44.0232C326.162 43.621 326.438 43.0178 326.438 42.2134V41.2621C325.335 41.9891 324.103 42.3526 322.742 42.3526C321.466 42.3526 320.312 42.0819 319.278 41.5405C318.261 40.9837 317.443 40.2334 316.822 39.2899C316.219 38.3463 315.918 37.3022 315.918 36.1575C315.918 35.0128 316.219 33.9765 316.822 33.0483C317.443 32.1202 318.278 31.3855 319.33 30.8441C320.381 30.2872 321.553 30.0088 322.845 30.0088C323.5 30.0088 324.138 30.0939 324.758 30.264C325.378 30.4342 325.956 30.674 326.49 30.9833V30.1944H329.979V42.2598C329.979 43.8531 329.402 45.0828 328.247 45.949C327.11 46.8153 325.464 47.2484 323.31 47.2484ZM323.284 39.6611C323.939 39.6611 324.534 39.5683 325.068 39.3827C325.602 39.1816 326.059 38.9031 326.438 38.5474V33.814C326.059 33.4737 325.594 33.2108 325.042 33.0252C324.508 32.8241 323.931 32.7235 323.31 32.7235C322.569 32.7235 321.906 32.8782 321.32 33.1876C320.734 33.4815 320.269 33.8914 319.924 34.4173C319.579 34.9278 319.407 35.5078 319.407 36.1575C319.407 36.8227 319.571 37.4182 319.898 37.9441C320.243 38.47 320.708 38.8877 321.294 39.1971C321.897 39.5064 322.561 39.6611 323.284 39.6611Z" fill="url(#paint1_linear_39_20)"/>
</g>
<defs>
<filter id="filter0_d_39_20" x="0" y="0" width="376.44" height="55.2484" filterUnits="userSpaceOnUse" color-interpolation-filters="sRGB">
<feFlood flood-opacity="0" result="BackgroundImageFix"/>
<feColorMatrix in="SourceAlpha" type="matrix" values="0 0 0 0 0 0 0 0 0 0 0 0 0 0 0 0 0 0 127 0" result="hardAlpha"/>
<feOffset dy="4"/>
<feGaussianBlur stdDeviation="2"/>
<feComposite in2="hardAlpha" operator="out"/>
<feColorMatrix type="matrix" values="0 0 0 0 0 0 0 0 0 0 0 0 0 0 0 0 0 0 0.25 0"/>
<feBlend mode="normal" in2="BackgroundImageFix" result="effect1_dropShadow_39_20"/>
<feBlend mode="normal" in="SourceGraphic" in2="effect1_dropShadow_39_20" result="shape"/>
</filter>
<linearGradient id="paint0_linear_39_20" x1="125.402" y1="16.514" x2="126.367" y2="-0.838524" gradientUnits="userSpaceOnUse">
<stop offset="1" stop-color="#0357B1"/>
</linearGradient>
<linearGradient id="paint1_linear_39_20" x1="133.259" y1="41.6502" x2="134.345" y2="24.3122" gradientUnits="userSpaceOnUse">
<stop offset="1" stop-color="#0357B1"/>
</linearGradient>
</defs>
</svg>
