<svg width="20" height="14" viewBox="0 0 20 14" fill="none" xmlns="http://www.w3.org/2000/svg">
<path d="M9.986 1C6.85461 1 3.64247 2.87958 1.11374 6.63875C1.04156 6.74723 1.00201 6.87547 1.00007 7.00725C0.998143 7.13904 1.03392 7.26846 1.10289 7.37917C3.04584 10.5333 6.215 13 9.986 13C13.716 13 16.9503 10.5258 18.8968 7.36458C18.9642 7.25605 19 7.1297 19 7.00063C19 6.87155 18.9642 6.7452 18.8968 6.63667C16.9458 3.51167 13.6879 1 9.986 1Z" stroke="#9D9D9D" stroke-linecap="round" stroke-linejoin="round"/>
<path d="M10 11C12.2091 11 14 9.20914 14 7C14 4.79086 12.2091 3 10 3C7.79086 3 6 4.79086 6 7C6 9.20914 7.79086 11 10 11Z" stroke="#9D9D9D" stroke-miterlimit="10"/>
</svg>
