<svg width="20" height="14" viewBox="0 0 20 14" fill="none" xmlns="http://www.w3.org/2000/svg">
<path d="M19.58 2.16942C19.4642 1.75409 19.2429 1.37577 18.9377 1.07121C18.6325 0.766653 18.2537 0.54621 17.8381 0.431299C16.2787 0.0144242 10.01 0.0144243 10.01 0.0144243C10.01 0.0144243 3.75311 0.00442421 2.17748 0.431299C1.76259 0.546773 1.38457 0.767465 1.08005 1.07199C0.775524 1.37651 0.554831 1.75453 0.439358 2.16942C0.143327 3.76582 -0.00251815 5.38645 0.00373273 7.01005C0.000360694 8.62587 0.146188 10.2385 0.439358 11.8275C0.555373 12.2426 0.776187 12.6208 1.08058 12.9258C1.38497 13.2309 1.7627 13.4525 2.17748 13.5694C3.73686 13.9863 10.01 13.9863 10.01 13.9863C10.01 13.9863 16.2631 13.9863 17.8381 13.5694C18.2536 13.4531 18.6321 13.2317 18.9372 12.9266C19.2423 12.6215 19.4636 12.243 19.58 11.8275C19.8669 10.2394 20.0069 8.62442 19.9969 7.01005C20.0069 5.38505 19.87 3.76755 19.58 2.16942ZM8.00748 10.0019V4.00505L13.2256 7.01005L8.00748 10.0019Z" fill="white"/>
</svg>
